<?xml version="1.0" encoding="UTF-8"?>
<!DOCTYPE svg PUBLIC "-//W3C//DTD SVG 1.1//EN" "http://www.w3.org/Graphics/SVG/1.1/DTD/svg11.dtd">
<!-- Creator: CorelDRAW 2019 (64-Bit) -->
<svg xmlns="http://www.w3.org/2000/svg" xml:space="preserve" width="74.0833mm" height="26.4584mm" version="1.1" style="shape-rendering:geometricPrecision; text-rendering:geometricPrecision; image-rendering:optimizeQuality; fill-rule:evenodd; clip-rule:evenodd"
viewBox="0 0 799.92 285.69"
 xmlns:xlink="http://www.w3.org/1999/xlink"
 xmlns:xodm="http://www.corel.com/coreldraw/odm/2003">
 <defs>
  <style type="text/css">
   <![CDATA[
    .fil1 {fill:gray;fill-rule:nonzero}
    .fil0 {fill:#D9D9D9;fill-rule:nonzero}
   ]]>
  </style>
 </defs>
 <g id="Ebene_x0020_1">
  <metadata id="CorelCorpID_0Corel-Layer"/>
  <path class="fil0" d="M571.37 285.69l-304.73 0c-73.34,0 -140.01,-29.99 -188.33,-78.31 -48.32,-48.32 -78.31,-114.98 -78.31,-188.33l0 -19.05 799.92 0 0 57.14c0,62.87 -25.71,120.01 -67.12,161.43 -41.42,41.41 -98.56,67.12 -161.43,67.12z"/>
  <path class="fil1" d="M266.64 247.59l304.73 0c52.36,0 99.97,-21.43 134.5,-55.96 34.53,-34.53 55.96,-82.14 55.96,-134.5l0 -19.05 -722.94 0c4.62,55.28 29.15,105.15 66.35,142.35 41.43,41.43 98.57,67.15 161.4,67.15z"/>
 </g>
</svg>
