<?xml version="1.0" encoding="UTF-8"?>
<!DOCTYPE svg PUBLIC "-//W3C//DTD SVG 1.1//EN" "http://www.w3.org/Graphics/SVG/1.1/DTD/svg11.dtd">
<!-- Creator: CorelDRAW 2019 (64-Bit) -->
<svg xmlns="http://www.w3.org/2000/svg" xml:space="preserve" width="21.3571mm" height="22.184mm" version="1.1" style="shape-rendering:geometricPrecision; text-rendering:geometricPrecision; image-rendering:optimizeQuality; fill-rule:evenodd; clip-rule:evenodd"
viewBox="0 0 69.28 71.96"
 xmlns:xlink="http://www.w3.org/1999/xlink"
 xmlns:xodm="http://www.corel.com/coreldraw/odm/2003">
 <defs>
  <style type="text/css">
   <![CDATA[
    .fil0 {fill:gray;fill-rule:nonzero}
    .fil1 {fill:#D9D9D9;fill-rule:nonzero}
   ]]>
  </style>
 </defs>
 <g id="Ebene_x0020_1">
  <metadata id="CorelCorpID_0Corel-Layer"/>
  <path class="fil0" d="M25.74 0l17.8 0c7.08,0 13.52,2.89 18.18,7.56 4.66,4.66 7.56,11.1 7.56,18.18l0 20.48c0,7.08 -2.89,13.52 -7.56,18.18 -4.66,4.66 -11.1,7.56 -18.18,7.56l-17.8 0c-7.08,0 -13.52,-2.89 -18.18,-7.56 -4.66,-4.66 -7.56,-11.1 -7.56,-18.18l0 -20.48c0,-7.08 2.89,-13.52 7.56,-18.18 4.66,-4.66 11.1,-7.56 18.18,-7.56z"/>
  <path class="fil1" d="M43.54 11.44l-17.8 0c-3.93,0 -7.5,1.61 -10.09,4.2 -2.59,2.59 -4.2,6.17 -4.2,10.09l0 20.48c0,3.93 1.61,7.5 4.2,10.09 2.59,2.59 6.17,4.2 10.09,4.2l17.8 0c3.93,0 7.5,-1.61 10.09,-4.2 2.59,-2.59 4.2,-6.17 4.2,-10.09l0 -20.48c0,-3.93 -1.61,-7.5 -4.2,-10.09 -2.59,-2.59 -6.17,-4.2 -10.09,-4.2z"/>
 </g>
</svg>
