<?xml version="1.0" encoding="UTF-8"?>
<!DOCTYPE svg PUBLIC "-//W3C//DTD SVG 1.1//EN" "http://www.w3.org/Graphics/SVG/1.1/DTD/svg11.dtd">
<!-- Creator: CorelDRAW 2019 (64-Bit) -->
<svg xmlns="http://www.w3.org/2000/svg" xml:space="preserve" width="225.622mm" height="50.7675mm" version="1.1" style="shape-rendering:geometricPrecision; text-rendering:geometricPrecision; image-rendering:optimizeQuality; fill-rule:evenodd; clip-rule:evenodd"
viewBox="0 0 22145.02 4982.88"
 xmlns:xlink="http://www.w3.org/1999/xlink"
 xmlns:xodm="http://www.corel.com/coreldraw/odm/2003">
 <defs>
  <style type="text/css">
   <![CDATA[
    .fil2 {fill:#D9D9D9}
    .fil1 {fill:#16053B;fill-rule:nonzero}
    .fil0 {fill:#2260AB;fill-rule:nonzero}
   ]]>
  </style>
 </defs>
 <g id="Ebene_x0020_1">
  <metadata id="CorelCorpID_0Corel-Layer"/>
  <path class="fil0" d="M21851.13 2864.03c263.58,-122.23 501.31,-185.53 2.3,-483.59 -968.76,-578.63 -1937.51,-1157.33 -2906.3,-1735.98 -6.13,-4.21 -12.75,-7.91 -19.81,-11.02l-350.48 -154.06 -0.08 0.18c-29.8,-13.1 -64.78,-14.21 -96.97,-0.18 -61.18,26.67 -30.72,45.95 -4.05,107.13l174.02 377.12 -147.33 353.26 -855.96 445.62 -2912.56 483.25 -3792.05 123.93 -2940.1 -40.53 -3015.7 -499.61 -830.86 -324.78 -577.26 -445.93 160.94 -374.71c10.12,-25.22 96.25,-92.94 87.3,-120.83 -20.39,-63.52 -88.43,-98.49 -151.96,-78.11l-443.87 143.78c-8.82,2.78 -17.47,6.63 -25.76,11.58l-2912.98 1739.89c-499.01,298.05 -261.29,361.36 2.3,483.59 3028.52,1404.31 6933.39,2126.26 10839.22,2118.78 3590.38,-6.89 7439.15,-598.48 10718.01,-2118.78z"/>
  <path class="fil1" d="M18824.67 852.75l-62.43 -27.45 36.77 84.48c14.7,30.1 16.9,66.13 3.04,99.51 -2035.85,2401.01 -15427.09,1105.13 -15365.19,157.07 -35.49,-33.07 -48.96,-85.77 -29.83,-133.5l95.69 -238.12 -185.96 60.24 -2977.14 1763.28c3269.17,1539.28 7203.13,2130.01 10793.5,2123.14 3053.25,-5.84 8102.83,-729.1 10694.33,-2121.52l-3002.77 -1767.12z"/>
  <path class="fil2" d="M17341.46 19.77c1057.35,269.6 1688.36,609.9 1688.36,979.83 0,874.88 -3528.72,1584.11 -7881.62,1584.11 -4352.9,0 -7881.62,-709.23 -7881.62,-1584.11 0,-379.05 662.73,-726.95 1767.56,-999.6 -1266.04,383.88 -1572.41,912.29 -1105.42,1239.83 1399.9,981.88 9969.05,1484.24 14127.23,190.45 448.9,-139.67 1067.67,-743.78 -714.5,-1410.52z"/>
 </g>
</svg>
