<?xml version="1.0" encoding="UTF-8"?>
<!DOCTYPE svg PUBLIC "-//W3C//DTD SVG 1.1//EN" "http://www.w3.org/Graphics/SVG/1.1/DTD/svg11.dtd">
<!-- Creator: CorelDRAW 2019 (64-Bit) -->
<svg xmlns="http://www.w3.org/2000/svg" xml:space="preserve" width="225.622mm" height="50.7675mm" version="1.1" style="shape-rendering:geometricPrecision; text-rendering:geometricPrecision; image-rendering:optimizeQuality; fill-rule:evenodd; clip-rule:evenodd"
viewBox="0 0 4905119.68 1103706.88"
 xmlns:xlink="http://www.w3.org/1999/xlink"
 xmlns:xodm="http://www.corel.com/coreldraw/odm/2003">
 <defs>
  <style type="text/css">
   <![CDATA[
    .fil2 {fill:#D9D9D9}
    .fil1 {fill:#1C5C3C;fill-rule:nonzero}
    .fil0 {fill:#3ACC2D;fill-rule:nonzero}
   ]]>
  </style>
 </defs>
 <g id="Ebene_x0020_1">
  <metadata id="CorelCorpID_0Corel-Layer"/>
  <path class="fil0" d="M4840022.33 634383.34c58383.9,-27073.35 111039.21,-41095.92 508.73,-107115.06 -214580.14,-128166.31 -429158.11,-256347.84 -643744.77,-384518.5 -1358.78,-932.66 -2824.08,-1752.28 -4387.22,-2441.45l-77630.7 -34123.77 -17.39 39.13c-6600.39,-2902.35 -14348.68,-3148.01 -21479.54,-39.13 -13550.81,5906.87 -6804.75,10178.87 -897.88,23729.67l38545.77 83531.05 -32634.55 78245.95 -189596.05 98705.86 -645131.81 107038.97 -839939.03 27449.46 -651232.17 -8976.62 -667976.64 -110663.1 -184034.85 -71939.06 -127861.94 -98773.26 35647.77 -82998.41c2241.44,-5587.29 21318.66,-20586.01 19335.93,-26764.63 -4515.49,-14070.4 -19588.12,-21816.51 -33658.52,-17301.03l-98316.71 31847.54c-1954.46,615.25 -3869.8,1467.48 -5706.86,2565.37l-645225.29 385385.94c-110530.48,66019.14 -57875.18,80041.71 508.73,107115.06 670815.94,311055.44 1535745.59,470967.11 2400886.12,469310.49 795268.99,-1526.18 1647771.81,-132562.22 2374038.87,-469310.49z"/>
  <path class="fil1" d="M4169662.94 188882.96l-13829.08 -6080.8 8143.96 18711.98c3256.72,6667.79 3743.7,14648.7 673.95,22040.44 -450939.83,531822.9 -3417098.66,244786.28 -3403389.15,34791.2 -7861.34,-7324.35 -10844.12,-18998.95 -6606.91,-29569.15l21194.74 -52744.44 -41189.4 13342.1 -659437 390566.68c724121.28,340950.69 1595492.62,471797.6 2390759.43,470275.77 676294.53,-1293.56 1794776.19,-161496.55 2368792.91,-469917.05l-665113.43 -391416.73z"/>
  <path class="fil2" d="M3841132.55 4378.52c234203.04,59716.59 373972.22,135092.81 373972.22,217032.46 0,193785.43 -781611.65,350879.54 -1745777.63,350879.54 -964165.98,0 -1745777.63,-157094.12 -1745777.63,-350879.54 0,-83959.34 146795.68,-161018.26 391514.56,-221410.98 -280427.53,85028.96 -348288.08,202072.87 -244849.33,274622.84 310077.12,217486.83 2208144.23,328758.66 3129179.38,42185.11 99431.99,-30936.62 236487.96,-164746.74 -158261.58,-312429.43z"/>
 </g>
</svg>
