<?xml version="1.0" encoding="UTF-8"?>
<!DOCTYPE svg PUBLIC "-//W3C//DTD SVG 1.1//EN" "http://www.w3.org/Graphics/SVG/1.1/DTD/svg11.dtd">
<!-- Creator: CorelDRAW 2019 (64-Bit) -->
<svg xmlns="http://www.w3.org/2000/svg" xml:space="preserve" width="100%" height="100%" version="1.1" style="shape-rendering:geometricPrecision; text-rendering:geometricPrecision; image-rendering:optimizeQuality; fill-rule:evenodd; clip-rule:evenodd"
viewBox="0 0 74.0833 26.4584"
 xmlns:xlink="http://www.w3.org/1999/xlink"
 xmlns:xodm="http://www.corel.com/coreldraw/odm/2003">
 <defs>
  <style type="text/css">
   <![CDATA[
    .fil0 {fill:#0B0980}
    .fil1 {fill:#46C5DB;fill-rule:nonzero}
   ]]>
  </style>
 </defs>
 <g id="Ebene_x0020_1">
  <metadata id="CorelCorpID_0Corel-Layer"/>
  <path class="fil0" d="M24.6944 24.6945l28.2223 0c10.6715,0 19.4027,-8.7312 19.4027,-19.4027l0 -3.5279 -70.5555 0 0 0.0001c0,12.6118 10.3187,22.9305 22.9305,22.9305z"/>
  <path class="fil1" d="M24.6944 22.9306l28.2223 0c4.8488,0 9.2583,-1.985 12.4561,-5.1827 3.1977,-3.1978 5.1827,-7.6073 5.1827,-12.4561l0 -1.764 -66.9539 0c0.4279,5.1198 2.6996,9.7381 6.1452,13.1838 3.8373,3.8372 9.1286,6.219 14.9476,6.219zm28.2223 3.5278l-28.2223 0c-6.7927,0 -12.9668,-2.7777 -17.4418,-7.2526 -4.4749,-4.475 -7.2526,-10.6491 -7.2526,-17.4418l0 -1.764 74.0833 0 0 5.2918c0,5.8225 -2.3808,11.1147 -6.2163,14.9503 -3.8356,3.8355 -9.1278,6.2163 -14.9503,6.2163z"/>
 </g>
</svg>
