<?xml version="1.0" encoding="UTF-8"?>
<!DOCTYPE svg PUBLIC "-//W3C//DTD SVG 1.1//EN" "http://www.w3.org/Graphics/SVG/1.1/DTD/svg11.dtd">
<!-- Creator: CorelDRAW 2019 (64-Bit) -->
<svg xmlns="http://www.w3.org/2000/svg" xml:space="preserve" width="100%" height="100%" version="1.1" style="shape-rendering:geometricPrecision; text-rendering:geometricPrecision; image-rendering:optimizeQuality; fill-rule:evenodd; clip-rule:evenodd"
viewBox="0 0 24.9144 35.5611"
 xmlns:xlink="http://www.w3.org/1999/xlink"
 xmlns:xodm="http://www.corel.com/coreldraw/odm/2003">
 <defs>
  <style type="text/css">
   <![CDATA[
    .fil0 {fill:#0B0980}
    .fil1 {fill:#46C5DB;fill-rule:nonzero}
   ]]>
  </style>
 </defs>
 <g id="Ebene_x0020_1">
  <metadata id="CorelCorpID_0Corel-Layer"/>
  <rect class="fil0" transform="matrix(1.35011E-14 0.509772 -0.531785 1.40841E-14 23.1505 1.76392)" width="62.8385" height="40.2167" rx="13.9212" ry="13.9212"/>
  <path class="fil1" d="M24.9144 9.167l0 17.2272c0,2.5226 -1.0308,4.8149 -2.6914,6.4755 -1.6606,1.6606 -3.9529,2.6914 -6.4755,2.6914l-6.5807 0c-2.5226,0 -4.8148,-1.0308 -6.4754,-2.6914 -1.6606,-1.6606 -2.6914,-3.9529 -2.6914,-6.4755l0 -17.2272c0,-2.5227 1.0308,-4.8149 2.6914,-6.4755 1.6605,-1.6607 3.9527,-2.6915 6.4754,-2.6915l6.5807 0c2.5226,0 4.8149,1.0309 6.4755,2.6915 1.6606,1.6606 2.6914,3.9529 2.6914,6.4755zm-3.5278 17.2272l0 -17.2272c0,-1.5488 -0.6349,-2.9584 -1.6578,-3.9813 -1.0229,-1.0229 -2.4325,-1.6579 -3.9813,-1.6579l-6.5807 0c-1.5488,0 -2.9584,0.635 -3.9812,1.6579 -1.0229,1.0229 -1.6578,2.4323 -1.6578,3.9813l0 17.2272c0,1.5488 0.6349,2.9584 1.6578,3.9813 1.0229,1.0229 2.4324,1.6578 3.9812,1.6578l6.5807 0c1.5488,0 2.9584,-0.6349 3.9813,-1.6578 1.0229,-1.0229 1.6578,-2.4325 1.6578,-3.9813z"/>
 </g>
</svg>
