<?xml version="1.0" encoding="UTF-8"?>
<!DOCTYPE svg PUBLIC "-//W3C//DTD SVG 1.1//EN" "http://www.w3.org/Graphics/SVG/1.1/DTD/svg11.dtd">
<!-- Creator: CorelDRAW 2019 (64-Bit) -->
<svg xmlns="http://www.w3.org/2000/svg" xml:space="preserve" width="64.3577mm" height="43.8107mm" version="1.1" style="shape-rendering:geometricPrecision; text-rendering:geometricPrecision; image-rendering:optimizeQuality; fill-rule:evenodd; clip-rule:evenodd"
viewBox="0 0 123095.39 83795.65"
 xmlns:xlink="http://www.w3.org/1999/xlink"
 xmlns:xodm="http://www.corel.com/coreldraw/odm/2003">
 <defs>
  <style type="text/css">
   <![CDATA[
    .fil3 {fill:#0B0980}
    .fil1 {fill:#1C5C3C}
    .fil4 {fill:#2260AB}
    .fil0 {fill:#3ACC2D}
    .fil2 {fill:gray}
   ]]>
  </style>
 </defs>
 <g id="Ebene_x0020_1">
  <metadata id="CorelCorpID_0Corel-Layer"/>
  <polygon class="fil0" points="5397.95,15435.29 21882.92,15435.29 21882.92,51407.36 -0,51407.36 -0,15435.29 "/>
  <polygon class="fil1" points="5397.95,20833.24 16484.97,20833.24 16484.97,46009.41 5397.95,46009.41 "/>
  <polygon class="fil0" points="32092.01,52504.28 50981.4,52504.28 50981.4,83795.65 26694.06,83795.65 26694.06,52504.28 "/>
  <polygon class="fil1" points="32092.01,57902.23 45583.45,57902.23 45583.45,78397.69 32092.01,78397.69 "/>
  <polygon class="fil2" points="100997.48,8940.42 16484.97,8940.42 16484.97,57902.23 100997.48,57902.23 "/>
  <polygon class="fil3" points="95599.53,14338.37 21882.92,14338.37 21882.92,52504.28 95599.53,52504.28 "/>
  <polygon class="fil4" points="100997.48,0 123095.39,0 123095.39,66842.65 95599.53,66842.65 95599.53,0 "/>
  <polygon class="fil3" points="100997.48,5397.95 117697.43,5397.95 117697.43,61444.7 100997.48,61444.7 "/>
 </g>
</svg>
