<?xml version="1.0" encoding="UTF-8"?>
<!DOCTYPE svg PUBLIC "-//W3C//DTD SVG 1.1//EN" "http://www.w3.org/Graphics/SVG/1.1/DTD/svg11.dtd">
<!-- Creator: CorelDRAW 2019 (64-Bit) -->
<svg xmlns="http://www.w3.org/2000/svg" xml:space="preserve" width="100%" height="100%" version="1.1" style="shape-rendering:geometricPrecision; text-rendering:geometricPrecision; image-rendering:optimizeQuality; fill-rule:evenodd; clip-rule:evenodd"
viewBox="0 0 81.8444 81.8444"
 xmlns:xlink="http://www.w3.org/1999/xlink"
 xmlns:xodm="http://www.corel.com/coreldraw/odm/2003">
 <defs>
  <style type="text/css">
   <![CDATA[
    .fil0 {fill:#0D0003}
    .fil2 {fill:#BF002D}
    .fil1 {fill:#BF002D;fill-rule:nonzero}
   ]]>
  </style>
 </defs>
 <g id="Ebene_x0020_1">
  <metadata id="CorelCorpID_0Corel-Layer"/>
  <circle class="fil0" cx="40.9222" cy="40.9222" r="39.1583"/>
  <path class="fil1" d="M40.9222 0c11.3,0 21.5306,4.5804 28.9362,11.986 7.4054,7.4055 11.986,17.6361 11.986,28.9362 0,11.3 -4.5806,21.5307 -11.986,28.9362 -7.4055,7.4054 -17.6362,11.986 -28.9362,11.986 -11.3001,0 -21.5307,-4.5806 -28.9362,-11.986 -7.4056,-7.4056 -11.986,-17.6362 -11.986,-28.9362 0,-11.3001 4.5804,-21.5306 11.986,-28.9362 7.4056,-7.4056 17.6361,-11.986 28.9362,-11.986zm26.442 14.4802c-6.7669,-6.7669 -16.1157,-10.9524 -26.442,-10.9524 -10.3264,0 -19.675,4.1854 -26.442,10.9524 -6.7669,6.7669 -10.9524,16.1156 -10.9524,26.442 0,10.3263 4.1855,19.6751 10.9524,26.442 6.7669,6.7668 16.1156,10.9524 26.442,10.9524 10.3263,0 19.6751,-4.1856 26.442,-10.9524 6.7668,-6.7669 10.9524,-16.1157 10.9524,-26.442 0,-10.3264 -4.1856,-19.6751 -10.9524,-26.442z"/>
  <polygon class="fil2" points="16.1835,22.2028 33.3813,39.4669 11.6856,32.72 "/>
  <polygon class="fil2" points="64.8228,22.2028 47.625,39.4669 69.3207,32.72 "/>
  <polygon class="fil1" points="18.4313,44.4279 22.7347,57.4486 30.4196,50.3937 36.5862,61.1525 40.9099,56.8289 43.4041,59.3231 35.8214,66.9057 29.5527,55.9688 21.098,63.7306 15.0827,45.5303 "/>
  <polygon class="fil1" points="66.7617,45.5303 60.7465,63.7306 52.2917,55.9688 46.0231,66.9057 38.4403,59.3231 40.9345,56.8289 45.2582,61.1525 51.4249,50.3937 59.1097,57.4486 63.4131,44.4279 "/>
 </g>
</svg>
