<?xml version="1.0" encoding="UTF-8"?>
<!DOCTYPE svg PUBLIC "-//W3C//DTD SVG 1.1//EN" "http://www.w3.org/Graphics/SVG/1.1/DTD/svg11.dtd">
<!-- Creator: CorelDRAW 2019 (64-Bit) -->
<svg xmlns="http://www.w3.org/2000/svg" xml:space="preserve" width="50.4917mm" height="65.5287mm" version="1.1" style="shape-rendering:geometricPrecision; text-rendering:geometricPrecision; image-rendering:optimizeQuality; fill-rule:evenodd; clip-rule:evenodd"
viewBox="0 0 385.25 499.98"
 xmlns:xlink="http://www.w3.org/1999/xlink"
 xmlns:xodm="http://www.corel.com/coreldraw/odm/2003">
 <defs>
  <style type="text/css">
   <![CDATA[
    .fil0 {fill:gray;fill-rule:nonzero}
    .fil1 {fill:#D9D9D9;fill-rule:nonzero}
   ]]>
  </style>
 </defs>
 <g id="Ebene_x0020_1">
  <metadata id="CorelCorpID_0Corel-Layer"/>
  <path class="fil0" d="M137.5 0l110.26 0c37.82,0 72.2,15.47 97.12,40.38 24.91,24.91 40.38,59.29 40.38,97.12l0 224.99c0,37.82 -15.47,72.2 -40.38,97.12 -24.91,24.91 -59.29,40.38 -97.12,40.38l-110.26 0c-37.82,0 -72.2,-15.47 -97.12,-40.38 -24.91,-24.91 -40.38,-59.29 -40.38,-97.12l0 -224.99c0,-37.82 15.47,-72.2 40.38,-97.12 24.91,-24.91 59.29,-40.38 97.12,-40.38z"/>
  <path class="fil1" d="M247.75 26.92l-110.26 0c-30.4,0 -58.04,12.44 -78.09,32.49 -20.05,20.05 -32.49,47.69 -32.49,78.09l0 224.99c0,30.4 12.44,58.04 32.49,78.09 20.05,20.05 47.69,32.49 78.09,32.49l110.26 0c30.39,0 58.04,-12.44 78.09,-32.49 20.05,-20.05 32.49,-47.69 32.49,-78.09l0 -224.99c0,-30.4 -12.45,-58.04 -32.49,-78.09 -20.05,-20.05 -47.69,-32.49 -78.09,-32.49z"/>
 </g>
</svg>
