<?xml version="1.0" encoding="UTF-8"?>
<!DOCTYPE svg PUBLIC "-//W3C//DTD SVG 1.1//EN" "http://www.w3.org/Graphics/SVG/1.1/DTD/svg11.dtd">
<!-- Creator: CorelDRAW 2019 (64-Bit) -->
<svg xmlns="http://www.w3.org/2000/svg" xml:space="preserve" width="24.9144mm" height="35.5611mm" version="1.1" style="shape-rendering:geometricPrecision; text-rendering:geometricPrecision; image-rendering:optimizeQuality; fill-rule:evenodd; clip-rule:evenodd"
viewBox="0 0 95.82 136.76"
 xmlns:xlink="http://www.w3.org/1999/xlink"
 xmlns:xodm="http://www.corel.com/coreldraw/odm/2003">
 <defs>
  <style type="text/css">
   <![CDATA[
    .fil1 {fill:gray;fill-rule:nonzero}
    .fil0 {fill:#D9D9D9;fill-rule:nonzero}
   ]]>
  </style>
 </defs>
 <g id="Ebene_x0020_1">
  <metadata id="CorelCorpID_0Corel-Layer"/>
  <path class="fil0" d="M95.82 35.25l0 66.25c0,9.7 -3.96,18.52 -10.35,24.9 -6.39,6.39 -15.2,10.35 -24.9,10.35l-25.31 0c-9.7,0 -18.52,-3.96 -24.9,-10.35 -6.39,-6.39 -10.35,-15.2 -10.35,-24.9l0 -66.25c0,-9.7 3.96,-18.52 10.35,-24.9 6.39,-6.39 15.2,-10.35 24.9,-10.35l25.31 0c9.7,0 18.52,3.96 24.9,10.35 6.39,6.39 10.35,15.2 10.35,24.9z"/>
  <path class="fil1" d="M82.25 101.51l0 -66.25c0,-5.96 -2.44,-11.38 -6.38,-15.31 -3.93,-3.93 -9.35,-6.38 -15.31,-6.38l-25.31 0c-5.96,0 -11.38,2.44 -15.31,6.38 -3.93,3.93 -6.38,9.35 -6.38,15.31l0 66.25c0,5.96 2.44,11.38 6.38,15.31 3.93,3.93 9.35,6.38 15.31,6.38l25.31 0c5.96,0 11.38,-2.44 15.31,-6.38 3.93,-3.93 6.38,-9.35 6.38,-15.31z"/>
 </g>
</svg>
