<?xml version="1.0" encoding="UTF-8"?>
<!DOCTYPE svg PUBLIC "-//W3C//DTD SVG 1.1//EN" "http://www.w3.org/Graphics/SVG/1.1/DTD/svg11.dtd">
<!-- Creator: CorelDRAW 2019 (64-Bit) -->
<svg xmlns="http://www.w3.org/2000/svg" xml:space="preserve" width="74.0833mm" height="49.3889mm" version="1.1" style="shape-rendering:geometricPrecision; text-rendering:geometricPrecision; image-rendering:optimizeQuality; fill-rule:evenodd; clip-rule:evenodd"
viewBox="0 0 799.92 533.28"
 xmlns:xlink="http://www.w3.org/1999/xlink"
 xmlns:xodm="http://www.corel.com/coreldraw/odm/2003">
 <defs>
  <style type="text/css">
   <![CDATA[
    .fil1 {fill:gray;fill-rule:nonzero}
    .fil0 {fill:#D9D9D9;fill-rule:nonzero}
   ]]>
  </style>
 </defs>
 <g id="Ebene_x0020_1">
  <metadata id="CorelCorpID_0Corel-Layer"/>
  <path class="fil0" d="M266.64 0l266.64 0c73.34,0 140.01,29.99 188.33,78.31 48.32,48.32 78.31,114.98 78.31,188.33l0 266.64 -799.92 0 0 -266.64c0,-73.34 29.99,-140.01 78.31,-188.33 48.32,-48.32 114.98,-78.31 188.33,-78.31z"/>
  <path class="fil1" d="M533.28 38.09l-266.64 0c-62.83,0 -119.96,25.72 -161.4,67.15 -41.43,41.43 -67.15,98.57 -67.15,161.4l0 228.55 723.74 0 0 -228.55c0,-62.83 -25.72,-119.96 -67.15,-161.4 -41.43,-41.43 -98.57,-67.15 -161.4,-67.15z"/>
 </g>
</svg>
