<?xml version="1.0" encoding="UTF-8"?>
<!DOCTYPE svg PUBLIC "-//W3C//DTD SVG 1.1//EN" "http://www.w3.org/Graphics/SVG/1.1/DTD/svg11.dtd">
<!-- Creator: CorelDRAW 2019 (64-Bit) -->
<svg xmlns="http://www.w3.org/2000/svg" xml:space="preserve" width="100%" height="100%" version="1.1" style="shape-rendering:geometricPrecision; text-rendering:geometricPrecision; image-rendering:optimizeQuality; fill-rule:evenodd; clip-rule:evenodd"
viewBox="0 0 221.9414 50.5513"
 xmlns:xlink="http://www.w3.org/1999/xlink"
 xmlns:xodm="http://www.corel.com/coreldraw/odm/2003">
 <defs>
  <style type="text/css">
   <![CDATA[
    .str0 {stroke:#3ACC2D;stroke-width:2.4694;stroke-miterlimit:22.9256}
    .fil0 {fill:#1C5C3C}
    .fil1 {fill:#D9D9D9}
   ]]>
  </style>
 </defs>
 <g id="Ebene_x0020_1">
  <metadata id="CorelCorpID_0Corel-Layer"/>
  <path class="fil0 str0" d="M190.0616 7.3619l30.6451 18.304 0 1.7588c-60.8583,29.048 -158.263,29.1901 -219.472,0.4206l0 -2.7044 29.7661 -17.779 4.5292 -1.4671 -1.9553 4.866 14.4081 8.5304 31.5446 4.3875 29.6809 1.4773 38.6249 -2.1955 29.9333 -4.8998 8.6279 -4.294 1.7495 -4.177 -1.6531 -3.7974 3.5708 1.5696z"/>
  <path class="fil1" d="M174.4011 0.2014c10.7727,2.7468 17.2017,6.2139 17.2017,9.9829 0,8.9136 -35.952,16.1395 -80.301,16.1395 -44.349,0 -80.301,-7.2259 -80.301,-16.1395 0,-3.8619 6.7522,-7.4064 18.0086,-10.1843 -12.8989,3.9111 -16.0203,9.2948 -11.2624,12.6319 14.2627,10.0038 101.5686,15.122 143.9337,1.9404 4.5736,-1.423 10.8778,-7.5779 -7.2796,-14.3709z"/>
 </g>
</svg>
