<?xml version="1.0" encoding="UTF-8"?>
<!DOCTYPE svg PUBLIC "-//W3C//DTD SVG 1.1//EN" "http://www.w3.org/Graphics/SVG/1.1/DTD/svg11.dtd">
<!-- Creator: CorelDRAW 2019 (64-Bit) -->
<svg xmlns="http://www.w3.org/2000/svg" xml:space="preserve" width="100%" height="100%" version="1.1" style="shape-rendering:geometricPrecision; text-rendering:geometricPrecision; image-rendering:optimizeQuality; fill-rule:evenodd; clip-rule:evenodd"
viewBox="0 0 21.3571 22.184"
 xmlns:xlink="http://www.w3.org/1999/xlink"
 xmlns:xodm="http://www.corel.com/coreldraw/odm/2003">
 <defs>
  <style type="text/css">
   <![CDATA[
    .fil0 {fill:#0B0980}
    .fil1 {fill:gray;fill-rule:nonzero}
   ]]>
  </style>
 </defs>
 <g id="Ebene_x0020_1">
  <metadata id="CorelCorpID_0Corel-Layer"/>
  <rect class="fil0" x="1.7639" y="1.7639" width="17.8293" height="18.6562" rx="3.9499" ry="6.4579"/>
  <path class="fil1" d="M7.9355 0l5.4861 0c2.184,0 4.1684,0.8923 5.6058,2.3297 1.4374,1.4374 2.3297,3.4218 2.3297,5.6058l0 6.313c0,2.184 -0.8923,4.1684 -2.3297,5.6058 -1.4374,1.4374 -3.4218,2.3297 -5.6058,2.3297l-5.4861 0c-2.184,0 -4.1684,-0.8923 -5.6058,-2.3297 -1.4374,-1.4374 -2.3297,-3.4218 -2.3297,-5.6058l0 -6.313c0,-2.184 0.8923,-4.1684 2.3297,-5.6058 1.4374,-1.4374 3.4218,-2.3297 5.6058,-2.3297zm5.4861 3.5278l-5.4861 0c-1.2103,0 -2.312,0.4965 -3.1116,1.2961 -0.7996,0.7996 -1.2961,1.9013 -1.2961,3.1116l0 6.313c0,1.2103 0.4965,2.312 1.2961,3.1116 0.7996,0.7996 1.9013,1.2961 3.1116,1.2961l5.4861 0c1.2103,0 2.312,-0.4965 3.1116,-1.2961 0.7996,-0.7996 1.2961,-1.9013 1.2961,-3.1116l0 -6.313c0,-1.2103 -0.4965,-2.312 -1.2961,-3.1116 -0.7996,-0.7996 -1.9013,-1.2961 -3.1116,-1.2961z"/>
 </g>
</svg>
