<?xml version="1.0" encoding="UTF-8"?>
<!DOCTYPE svg PUBLIC "-//W3C//DTD SVG 1.1//EN" "http://www.w3.org/Graphics/SVG/1.1/DTD/svg11.dtd">
<!-- Creator: CorelDRAW 2019 (64-Bit) -->
<svg xmlns="http://www.w3.org/2000/svg" xml:space="preserve" width="100%" height="100%" version="1.1" style="shape-rendering:geometricPrecision; text-rendering:geometricPrecision; image-rendering:optimizeQuality; fill-rule:evenodd; clip-rule:evenodd"
viewBox="0 0 50.4917 65.5287"
 xmlns:xlink="http://www.w3.org/1999/xlink"
 xmlns:xodm="http://www.corel.com/coreldraw/odm/2003">
 <defs>
  <style type="text/css">
   <![CDATA[
    .fil0 {fill:#0B0980}
    .fil1 {fill:gray;fill-rule:nonzero}
   ]]>
  </style>
 </defs>
 <g id="Ebene_x0020_1">
  <metadata id="CorelCorpID_0Corel-Layer"/>
  <rect class="fil0" x="1.7638" y="1.7638" width="46.964" height="62.0009" rx="10.4044" ry="21.4619"/>
  <path class="fil1" d="M18.0206 0l14.4506 0c4.9573,0 9.463,2.0269 12.7283,5.2922 3.2653,3.2654 5.2922,7.7711 5.2922,12.7285l0 29.4875c0,4.9573 -2.0269,9.463 -5.2922,12.7283 -3.2653,3.2653 -7.771,5.2922 -12.7283,5.2922l-14.4506 0c-4.9574,0 -9.4631,-2.0269 -12.7284,-5.2922 -3.2653,-3.2653 -5.2922,-7.7709 -5.2922,-12.7283l0 -29.4875c0,-4.9574 2.0269,-9.4631 5.2922,-12.7285 3.2653,-3.2653 7.771,-5.2922 12.7284,-5.2922zm14.4506 3.5278l-14.4506 0c-3.9837,0 -7.6066,1.631 -10.2342,4.2586 -2.6275,2.6276 -4.2586,6.2506 -4.2586,10.2343l0 29.4875c0,3.9837 1.631,7.6065 4.2586,10.2341 2.6276,2.6276 6.2505,4.2586 10.2342,4.2586l14.4506 0c3.9836,0 7.6065,-1.631 10.2341,-4.2586 2.6276,-2.6276 4.2586,-6.2505 4.2586,-10.2341l0 -29.4875c0,-3.9837 -1.6311,-7.6067 -4.2586,-10.2343 -2.6276,-2.6276 -6.2505,-4.2586 -10.2341,-4.2586z"/>
 </g>
</svg>
