<?xml version="1.0" encoding="UTF-8"?>
<!DOCTYPE svg PUBLIC "-//W3C//DTD SVG 1.1//EN" "http://www.w3.org/Graphics/SVG/1.1/DTD/svg11.dtd">
<!-- Creator: CorelDRAW 2019 (64-Bit) -->
<svg xmlns="http://www.w3.org/2000/svg" xml:space="preserve" width="76.2mm" height="76.2mm" version="1.1" style="shape-rendering:geometricPrecision; text-rendering:geometricPrecision; image-rendering:optimizeQuality; fill-rule:evenodd; clip-rule:evenodd"
viewBox="0 0 1415.89 1415.89"
 xmlns:xlink="http://www.w3.org/1999/xlink"
 xmlns:xodm="http://www.corel.com/coreldraw/odm/2003">
 <defs>
  <style type="text/css">
   <![CDATA[
    .fil0 {fill:black}
    .fil1 {fill:white}
   ]]>
  </style>
 </defs>
 <g id="Ebene_x0020_1">
  <metadata id="CorelCorpID_0Corel-Layer"/>
  <g id="_243495216">
   <polygon class="fil0" points="281.87,1415.89 -0,1415.89 -0,1081.58 170.43,1081.58 170.43,1245.46 334.31,1245.46 334.31,1415.89 "/>
   <polygon class="fil0" points="1415.89,1134.02 1415.89,1415.89 1081.58,1415.89 1081.58,1245.46 1245.46,1245.46 1245.46,1081.58 1415.89,1081.58 "/>
   <polygon class="fil0" points="1134.02,0 1415.89,0 1415.89,334.31 1245.46,334.31 1245.46,170.43 1081.58,170.43 1081.58,0 "/>
   <polygon class="fil1" points="281.87,1363.45 52.44,1363.45 52.44,1134.02 117.99,1134.02 117.99,1297.9 281.87,1297.9 "/>
   <polygon class="fil1" points="1363.45,1134.02 1363.45,1363.45 1134.02,1363.45 1134.02,1297.9 1297.9,1297.9 1297.9,1134.02 "/>
   <polygon class="fil1" points="1134.02,52.44 1363.45,52.44 1363.45,281.87 1297.9,281.87 1297.9,117.99 1134.02,117.99 "/>
   <polygon class="fil0" points="52.44,0 334.31,0 334.31,170.43 170.43,170.43 170.43,334.31 -0,334.31 -0,0 "/>
   <polygon class="fil1" points="52.44,52.44 281.87,52.44 281.87,117.99 117.99,117.99 117.99,281.87 52.44,281.87 "/>
  </g>
 </g>
</svg>
